HIERARCHY
ROOT root
{
	OFFSET	0	13.1	24.9
	CHANNELS 6  Xposition Yposition Zposition Xrotation Yrotation Zrotation
	JOINT spine_1
	{
		OFFSET	0	9.99999	0
		CHANNELS 3  Xrotation Yrotation Zrotation
		JOINT spine_2
		{
			OFFSET	0	112	-10
			CHANNELS 3  Xrotation Yrotation Zrotation
			JOINT spine_3
			{
				OFFSET	0	206.5	19.3
				CHANNELS 3  Xrotation Yrotation Zrotation
				JOINT spine_4
				{
					OFFSET	0	110.4	14.6
					CHANNELS 3  Xrotation Yrotation Zrotation
					JOINT neck_1
					{
						OFFSET	0	71.8	-50.3
						CHANNELS 3  Xrotation Yrotation Zrotation
						JOINT neck_2
						{
							OFFSET	0	86.2	-25.8
							CHANNELS 3  Xrotation Yrotation Zrotation
							JOINT head_ee
							{
								OFFSET	0	179.8	-8.7
								CHANNELS 3  Xrotation Yrotation Zrotation
								End Site
								{
									OFFSET	1	0	0
								}
							}
						}
					}
					JOINT left_clavicle
					{
						OFFSET	-43.2	22.4	-70.8
						CHANNELS 3  Xrotation Yrotation Zrotation
						JOINT left_shoulder
						{
							OFFSET	-93.9	-5.79999	48.7
							CHANNELS 3  Xrotation Yrotation Zrotation
							JOINT left_elbow
							{
								OFFSET	-291.4	-30.8	15.2
								CHANNELS 3  Xrotation Yrotation Zrotation
								JOINT left_lowarm_twist
								{
									OFFSET	-110.7	-3.89999	13.6
									CHANNELS 3  Xrotation Yrotation Zrotation
									JOINT left_hand
									{
										OFFSET	-110.7	-3.89999	13.6
										CHANNELS 3  Xrotation Yrotation Zrotation
										JOINT left_ee
										{
											OFFSET	-80.8	-5.10001	12.1
											CHANNELS 3  Xrotation Yrotation Zrotation
											End Site
											{
												OFFSET	1	0	0
											}
										}
									}
								}
							}
						}
					}
					JOINT right_clavicle
					{
						OFFSET	43.2	22.4	-70.8
						CHANNELS 3  Xrotation Yrotation Zrotation
						JOINT right_shoulder
						{
							OFFSET	93.9	-5.79999	48.7
							CHANNELS 3  Xrotation Yrotation Zrotation
							JOINT right_elbow
							{
								OFFSET	291.4	-30.8	15.2
								CHANNELS 3  Xrotation Yrotation Zrotation
								JOINT right_lowarm_twist
								{
									OFFSET	110.7	-3.89999	13.6
									CHANNELS 3  Xrotation Yrotation Zrotation
									JOINT right_hand
									{
										OFFSET	110.7	-3.89999	13.6
										CHANNELS 3  Xrotation Yrotation Zrotation
										JOINT right_ee
										{
											OFFSET	80.8	-5.10001	12.1
											CHANNELS 3  Xrotation Yrotation Zrotation
											End Site
											{
												OFFSET	1	0	0
											}
										}
									}
								}
							}
						}
					}
				}
			}
		}
	}
	JOINT left_hip
	{
		OFFSET	-82.8	-127.5	0.300001
		CHANNELS 3  Xrotation Yrotation Zrotation
		JOINT left_knee
		{
			OFFSET	-28.2	-396.7	2.2
			CHANNELS 3  Xrotation Yrotation Zrotation
			JOINT left_ankle
			{
				OFFSET	-11.7	-411.3	35.4
				CHANNELS 3  Xrotation Yrotation Zrotation
				JOINT left_toes
				{
					OFFSET	0	-60	-88.6
					CHANNELS 3  Xrotation Yrotation Zrotation
					JOINT left_foot_ee
					{
						OFFSET	-22.5	-16.5	-42.2
						CHANNELS 3  Xrotation Yrotation Zrotation
						End Site
						{
							OFFSET	1	0	0
						}
					}
				}
			}
		}
	}
	JOINT right_hip
	{
		OFFSET	82.8	-127.5	0.300001
		CHANNELS 3  Xrotation Yrotation Zrotation
		JOINT right_knee
		{
			OFFSET	28.2	-396.7	2.2
			CHANNELS 3  Xrotation Yrotation Zrotation
			JOINT right_ankle
			{
				OFFSET	11.7	-411.3	35.4
				CHANNELS 3  Xrotation Yrotation Zrotation
				JOINT right_toes
				{
					OFFSET	0	-60	-88.6
					CHANNELS 3  Xrotation Yrotation Zrotation
					JOINT right_foot_ee
					{
						OFFSET	22.5	-16.5	-42.2
						CHANNELS 3  Xrotation Yrotation Zrotation
						End Site
						{
							OFFSET	1	0	0
						}
					}
				}
			}
		}
	}
}
MOTION
Frames: 15
Frame Time: 0.02
2798.78052212 700.834 -1688.77501248 12.752519065 66.1046460085 -4.05992491998 -0.1413 -0.536445 -2.47219 -0.13798 -0.378097 -2.50129 -0.119366 0.161299 -2.52454 -0.12818 -0.2393 -2.51835 -20.2138 2.74829 3.97891 -20.1835 3.29329 4.84822 -0.0 0.0 -0.0 9.35105 5.72138 18.0081 -3.29834 -21.4928 57.2401 1.31404 -33.06 0.389999 27.8417 0.128002 -3.51947 -1.32482 17.8949 -0.765815 -0.0 0.0 -0.0 8.82632 14.0685 -17.1468 -22.412 6.76061 -61.3515 0.594957 16.4217 -0.0858502 18.9862 -0.273772 2.39879 2.13924 16.9582 -7.10049 0.0 0.0 0.0 -3.45328 12.082 -6.16995 1.12549 -0.0479801 -0.166043 24.9209 -4.3097 -3.3831 -15.8349 0.0 0.0 -0.0 0.0 -0.0 26.7563 20.3533 -14.7361 -72.1622 3.64601 -9.71781 11.8799 29.0224 2.09329 -29.5919 0.0 0.0 0.0 0.0 0.0 
2798.49968264 700.834 -1682.21817403 13.268768359 67.0720067307 -4.62246719393 -0.1413 -0.536445 -2.47219 -0.13798 -0.378097 -2.50129 -0.119366 0.161299 -2.52454 -0.12818 -0.2393 -2.51835 -20.2138 2.74829 3.97891 -20.1835 3.29329 4.84822 -0.0 0.0 -0.0 9.35105 5.72138 18.0081 -3.29834 -21.4928 57.2401 1.31404 -33.06 0.389999 27.8417 0.128002 -3.51947 -1.32482 17.8949 -0.765815 -0.0 0.0 -0.0 8.82632 14.0685 -17.1468 -22.412 6.76061 -61.3515 0.594957 16.4217 -0.0858502 18.9862 -0.273772 2.39879 2.13924 16.9582 -7.10049 0.0 0.0 0.0 -3.45328 12.082 -6.16995 1.12549 -0.0479801 -0.166043 24.9209 -4.3097 -3.3831 -15.8349 0.0 0.0 -0.0 0.0 -0.0 26.7563 20.3533 -14.7361 -72.1622 3.64601 -9.71781 11.8799 29.0224 2.09329 -29.5919 0.0 0.0 0.0 0.0 0.0 
2779.48342928 700.555 -1661.96987276 12.8005085131 68.2260642397 -4.42344598233 -0.140828 -0.579398 -2.62821 -0.13708 -0.411044 -2.65972 -0.115608 0.162534 -2.68637 -0.125581 -0.263612 -2.67834 -20.6565 2.84549 4.41191 -20.6164 3.29828 5.30989 -0.0 0.0 -0.0 9.96488 4.13214 19.3304 -1.97338 -21.091 55.8578 1.33991 -33.5725 0.404208 27.4563 0.137943 -3.47123 -0.904072 14.1262 0.150543 -0.0 0.0 -0.0 8.39867 15.1685 -16.1583 -22.57 6.97658 -61.9801 0.438045 12.2433 -0.046981 19.6554 -0.268825 2.48413 2.17476 18.3737 -6.68128 0.0 0.0 0.0 -5.32476 13.7649 -5.1508 4.49525 -0.211042 -0.657233 26.0446 -5.11268 -3.52321 -16.2383 0.0 0.0 -0.0 0.0 -0.0 30.2295 19.296 -13.9656 -71.5093 3.56218 -9.66175 15.9339 29.2688 2.76104 -31.1904 0.0 0.0 0.0 0.0 0.0 
2764.86316191 700.791 -1641.48691603 12.2460694555 69.9230868162 -4.11507045707 -0.0241277 -0.421917 -2.84645 -0.0196524 -0.240012 -2.86751 -0.00526308 0.368496 -2.85385 -0.0166172 -0.0866477 -2.87622 -20.0579 2.86788 6.14881 -19.9582 2.41197 6.90403 -0.0 0.0 -0.0 10.2274 4.54642 19.8214 -0.819258 -21.3464 55.6075 1.52401 -37.0485 0.510672 25.9671 0.173295 -3.28429 -0.614877 10.6676 0.486502 -0.0 0.0 -0.0 7.88017 15.1377 -15.0302 -22.6861 7.1482 -62.2262 0.343816 9.66587 -0.0290702 20.0394 -0.265537 2.53306 2.14547 18.3983 -6.47396 0.0 0.0 0.0 -6.16761 16.0667 -4.2037 5.16315 -0.246785 -0.753428 27.1454 -5.86157 -3.65889 -16.2965 0.0 0.0 -0.0 0.0 -0.0 31.9406 18.1416 -14.0626 -64.9336 2.75561 -9.04565 18.4256 25.3881 3.00708 -33.6692 0.0 0.0 0.0 0.0 0.0 
2730.82327001 697.494 -1615.31498147 9.23162382382 70.1206695886 -2.04895536792 0.301139 -0.294995 -2.93985 0.30594 -0.10741 -2.95265 0.313399 0.500029 -2.91202 0.301568 0.0340632 -2.95441 -22.2223 3.11039 8.2494 -22.0366 2.13462 9.05317 -0.0 0.0 -0.0 10.0642 4.26716 19.5181 0.953039 -22.0221 54.4597 1.74929 -40.9069 0.652457 23.7714 0.216525 -3.00715 -0.260617 7.10775 1.26564 -0.0 0.0 -0.0 7.3901 16.468 -13.8848 -22.9871 5.81721 -62.9951 0.213335 6.03275 -0.0112415 21.2557 -0.252958 2.68791 1.92207 16.9238 -5.65839 0.0 0.0 0.0 -7.45155 19.1644 -2.3551 4.49633 -0.211099 -0.657389 30.0808 -6.75111 -3.99665 -15.7444 0.0 0.0 -0.0 0.0 -0.0 35.9656 15.8102 -12.8363 -52.0105 1.40174 -7.58876 21.5534 23.0091 3.37091 -36.3487 0.0 0.0 0.0 0.0 0.0 
2731.68046214 697.494 -1608.64743657 9.62910888279 70.966074923 -2.47050230885 0.301139 -0.294995 -2.93985 0.30594 -0.10741 -2.95265 0.313399 0.500029 -2.91202 0.301568 0.0340632 -2.95441 -22.2223 3.11039 8.2494 -22.0366 2.13462 9.05317 -0.0 0.0 -0.0 10.0642 4.26716 19.5181 0.953039 -22.0221 54.4597 1.74929 -40.9069 0.652457 23.7714 0.216525 -3.00715 -0.260617 7.10775 1.26564 -0.0 0.0 -0.0 7.3901 16.468 -13.8848 -22.9871 5.81721 -62.9951 0.213335 6.03275 -0.0112415 21.2557 -0.252958 2.68791 1.92207 16.9238 -5.65839 0.0 0.0 0.0 -7.45155 19.1644 -2.3551 4.49633 -0.211099 -0.657389 30.0808 -6.75111 -3.99665 -15.7444 0.0 0.0 -0.0 0.0 -0.0 35.9656 15.8102 -12.8363 -52.0105 1.40174 -7.58876 21.5534 23.0091 3.37091 -36.3487 0.0 0.0 0.0 0.0 0.0 
2717.39834366 694.564 -1591.48023452 7.91788668541 72.1327546185 -1.27306898636 0.433938 -0.385804 -2.99533 0.438908 -0.19451 -3.01379 0.451076 0.420021 -2.99073 0.4386 -0.057357 -3.01951 -21.8846 3.18353 8.07822 -21.7078 2.30771 8.90995 -0.0 0.0 -0.0 10.0187 4.03419 19.4448 1.6163 -22.6736 54.3502 1.96097 -44.1642 0.795619 23.1642 0.226602 -2.93025 -0.129908 6.01622 1.66224 -0.0 0.0 -0.0 7.16548 17.4048 -13.3337 -24.2242 5.17376 -62.9727 0.195659 5.53616 -0.00946012 21.9729 -0.244001 2.77908 1.62646 16.0402 -4.07594 0.0 0.0 0.0 -8.32069 20.8431 -0.761433 5.17902 -0.247649 -0.755709 30.199 -7.26428 -4.0177 -15.5578 0.0 0.0 -0.0 0.0 -0.0 36.6431 15.4287 -11.4825 -47.754 1.03223 -7.04753 19.7302 22.0718 3.0887 -37.4908 0.0 0.0 0.0 0.0 0.0 
2696.37019497 690.424 -1584.19035449 5.86698159751 71.9119328436 -0.462329763056 0.503971 -0.410799 -2.96398 0.508831 -0.221446 -2.98409 0.522206 0.383897 -2.96759 0.509928 -0.0893784 -2.99096 -23.2583 2.7465 8.81884 -23.0418 1.32564 9.46689 -0.0 0.0 -0.0 9.86251 4.41606 19.106 2.36409 -23.2387 54.3672 2.25103 -48.1081 1.00487 22.2235 0.240602 -2.81091 -0.0641942 5.2258 1.7637 -0.0 0.0 -0.0 6.29603 17.2237 -11.4622 -24.422 4.02366 -63.1221 0.2057 5.81837 -0.0104534 23.8465 -0.215221 3.01667 1.02272 15.754 -0.157932 0.0 0.0 0.0 -8.99037 23.484 1.5134 3.94569 -0.182477 -0.57778 33.0198 -6.14594 -4.29459 -15.4301 0.0 0.0 -0.0 0.0 -0.0 37.223 14.2673 -10.049 -43.02 0.669988 -6.41579 18.31 21.0385 2.85986 -38.6297 0.0 0.0 0.0 0.0 0.0 
2677.09774042 685.861 -1577.55001078 4.23448260653 72.4806724374 0.410086149112 0.516839 -0.464424 -2.98345 0.521749 -0.273726 -3.00693 0.538027 0.336392 -3.00057 0.525491 -0.141491 -3.01604 -21.575 3.37334 8.61624 -21.3731 2.37118 9.47524 -0.0 0.0 -0.0 10.2576 4.46205 19.8885 3.42957 -23.4509 53.8359 2.45585 -50.5722 1.16029 19.913 0.266656 -2.51695 -0.415478 4.27823 -0.944333 -0.0 0.0 -0.0 5.73153 15.798 -10.3505 -25.114 3.90577 -63.064 0.261821 7.3901 -0.0169085 23.88 -0.214637 3.0209 0.307263 13.941 3.86184 0.0 0.0 0.0 -11.1301 25.0543 3.7206 5.40493 -0.260001 -0.788149 33.8829 -5.95007 -4.3783 -17.0765 0.0 0.0 -0.0 0.0 -0.0 38.335 13.6058 -9.68049 -35.7044 0.216339 -5.38761 12.0181 20.0849 1.91745 -39.1209 0.0 0.0 0.0 0.0 0.0 
2660.51512136 683.307 -1580.07091533 3.82991751799 72.6586407418 0.287584317376 0.514806 -0.382049 -2.94304 0.519603 -0.194085 -2.96137 0.531404 0.405679 -2.93988 0.519349 -0.0634996 -2.96704 -20.0636 4.56533 9.7707 -19.8122 3.8514 10.9601 -0.0 0.0 -0.0 10.4533 4.65935 20.2628 3.88784 -23.9188 53.6697 2.69379 -53.1433 1.34747 17.5896 0.280883 -2.22055 -0.585976 3.29349 -2.49218 -0.0 0.0 -0.0 5.31542 14.5369 -9.55112 -25.5818 3.40568 -63.3275 0.309428 8.71474 -0.0235777 24.682 -0.199886 3.12229 -0.283737 12.6586 7.30981 0.0 0.0 0.0 -12.6513 27.107 4.93845 5.95572 -0.290656 -0.86704 35.2706 -5.18627 -4.50274 -18.6711 0.0 0.0 -0.0 0.0 -0.0 38.551 13.6924 -8.18129 -27.3663 -0.135898 -4.15772 7.16241 19.5063 1.15913 -38.6292 0.0 0.0 0.0 0.0 0.0 
2660.06063071 683.307 -1582.74321941 3.76761461074 72.3629845998 0.352906626484 0.514806 -0.382049 -2.94304 0.519603 -0.194085 -2.96137 0.531404 0.405679 -2.93988 0.519349 -0.0634996 -2.96704 -20.0636 4.56533 9.7707 -19.8122 3.8514 10.9601 -0.0 0.0 -0.0 10.4533 4.65935 20.2628 3.88784 -23.9188 53.6697 2.69379 -53.1433 1.34747 17.5896 0.280883 -2.22055 -0.585976 3.29349 -2.49218 -0.0 0.0 -0.0 5.31542 14.5369 -9.55112 -25.5818 3.40568 -63.3275 0.309428 8.71474 -0.0235777 24.682 -0.199886 3.12229 -0.283737 12.6586 7.30981 0.0 0.0 0.0 -12.6513 27.107 4.93845 5.95572 -0.290656 -0.86704 35.2706 -5.18627 -4.50274 -18.6711 0.0 0.0 -0.0 0.0 -0.0 38.551 13.6924 -8.18129 -27.3663 -0.135898 -4.15772 7.16241 19.5063 1.15913 -38.6292 0.0 0.0 0.0 0.0 0.0 
2623.67430511 674.523 -1580.32976812 -3.21820278335 72.5953167634 6.19065547581 0.593821 -0.197147 -2.92184 0.59857 -0.0109042 -2.92846 0.600543 0.575243 -2.87147 0.589056 0.114732 -2.92623 -18.003 5.82833 10.949 -17.6934 5.26913 12.4091 -0.0 0.0 -0.0 10.3993 4.30188 20.185 5.35711 -24.0141 53.0219 2.99758 -56.0307 1.59513 14.2761 0.280365 -1.79739 -0.940199 2.38395 -5.23977 -0.0 0.0 -0.0 4.73554 13.1752 -8.41757 -25.3609 2.81517 -64.1208 0.34788 9.77793 -0.0297565 27.4649 -0.137724 3.47232 -1.02596 9.24138 10.9164 0.0 0.0 0.0 -14.5543 29.2915 7.50971 6.6504 -0.330401 -0.966123 36.9997 -4.15765 -4.65168 -20.4055 0.0 0.0 -0.0 0.0 -0.0 38.5634 11.8463 -6.9675 -8.78363 -0.260775 -1.32148 -3.28079 20.1451 -0.551247 -39.4157 0.0 0.0 0.0 0.0 0.0 
2598.22165069 666.449 -1584.33907943 -5.84422635789 73.1272215965 8.20556620337 0.667078 -0.306834 -2.80504 0.671446 -0.127792 -2.81886 0.679096 0.434797 -2.78808 0.668249 -0.0108028 -2.82173 -13.8496 8.20055 10.5405 -13.5949 9.1729 12.521 -0.0 0.0 -0.0 10.4033 4.00683 20.2172 5.53889 -24.1226 52.7557 3.32082 -58.6915 1.8674 11.8708 0.264663 -1.49059 -1.04979 1.70849 -6.26999 -0.0 0.0 -0.0 4.48622 11.1332 -8.03799 -26.5058 2.97948 -64.476 0.325712 9.16577 -0.0261083 27.9064 -0.126303 3.52755 -1.18181 7.53373 11.2469 0.0 0.0 0.0 -15.3624 29.5799 7.97441 4.89579 -0.232342 -0.71497 39.8677 -2.82006 -4.89123 -21.166 0.0 0.0 -0.0 0.0 -0.0 37.5781 12.6495 -7.59273 -0.726072 -0.0292151 -0.107594 -6.62973 20.705 -1.12804 -38.5216 0.0 0.0 0.0 0.0 0.0 
2558.15343696 661.349 -1585.83936364 -14.1915143005 77.875202485 17.4687607129 0.585389 -0.405294 -2.87202 0.58995 -0.221796 -2.89197 0.602783 0.360932 -2.87793 0.591239 -0.0979148 -2.8988 -8.38233 10.3575 10.6087 -8.10431 11.9225 12.7315 -0.0 0.0 -0.0 9.97853 3.54462 19.4 4.54073 -24.8295 51.6887 3.93793 -62.8414 2.40627 9.02483 0.229475 -1.12881 -0.992686 -0.706411 -6.95573 -0.0 0.0 -0.0 4.57352 8.80052 -8.3748 -26.5827 3.24944 -66.6028 0.32475 9.13915 -0.0259552 31.6389 -0.0127996 3.99071 -1.49729 -0.712685 9.72665 0.0 0.0 0.0 -14.2489 28.5889 3.87258 3.44185 -0.156961 -0.504706 40.1908 -3.34004 -4.92519 -21.6972 0.0 0.0 -0.0 0.0 -0.0 36.5501 12.9452 -8.80236 4.39233 0.205634 0.642373 -12.8099 21.2599 -2.21241 -35.5141 0.0 0.0 0.0 0.0 0.0 
2530.46911708 659.873 -1585.28233192 -18.7037970082 80.0167415851 21.9459305193 0.580467 -0.472493 -2.76915 0.584685 -0.295398 -2.79357 0.60071 0.269135 -2.79622 0.589842 -0.175675 -2.80364 -6.87933 11.1934 11.0793 -6.56214 12.7531 13.2636 -0.0 0.0 -0.0 9.5417 3.80971 18.5114 3.01388 -26.3851 52.3393 4.29658 -64.8141 2.7282 7.68763 0.206745 -0.959511 -0.721022 -1.68465 -5.55399 -0.0 0.0 -0.0 4.54858 6.97809 -8.4345 -26.1766 3.82186 -66.6157 0.330692 9.30348 -0.0269075 33.7905 0.066273 4.25408 -1.76586 -6.10153 9.03021 0.0 0.0 0.0 -15.0716 27.6081 3.18159 2.50952 -0.111447 -0.368915 39.8867 -3.75906 -4.90443 -21.7897 0.0 0.0 -0.0 0.0 -0.0 35.8982 13.2869 -9.21596 3.94328 0.182353 0.577431 -16.0368 20.5678 -2.7589 -33.9016 0.0 0.0 0.0 0.0 0.0 
